{
  "accessors": [
    {
      "bufferView": 2,
      "componentType": 5126,
      "count": 216,
      "max": [
        292.89630126953125,
        528.381591796875,
        5.902799606323242
      ],
      "min": [
        -292.93927001953125,
        501.870361328125,
        -24.133298873901367
      ],
      "type": "VEC3"
    },
    {
      "bufferView": 2,
      "byteOffset": 2592,
      "componentType": 5126,
      "count": 216,
      "max": [
        0.988823413848877,
        0.9998992085456848,
        0.3123514652252197
      ],
      "min": [
        -0.9888240694999695,
        -0.9980109930038452,
        -0.9716058373451233
      ],
      "type": "VEC3"
    },
    {
      "bufferView": 1,
      "componentType": 5126,
      "count": 216,
      "max": [
        0.9785000085830688,
        1.9296000003814697
      ],
      "min": [
        0.039000000804662704,
        1.0702999830245972
      ],
      "type": "VEC2"
    },
    {
      "bufferView": 0,
      "componentType": 5125,
      "count": 708,
      "type": "SCALAR"
    },
    {
      "bufferView": 2,
      "byteOffset": 5184,
      "componentType": 5126,
      "count": 458,
      "max": [
        292.89630126953125,
        529.703369140625,
        6.359100341796875
      ],
      "min": [
        -292.94317626953125,
        499.301513671875,
        -24.766700744628906
      ],
      "type": "VEC3"
    },
    {
      "bufferView": 2,
      "byteOffset": 10680,
      "componentType": 5126,
      "count": 458,
      "max": [
        0.9928401708602905,
        0.9997962117195129,
        0.998354971408844
      ],
      "min": [
        -0.9928414225578308,
        -0.9390755891799927,
        -0.9997766017913818
      ],
      "type": "VEC3"
    },
    {
      "bufferView": 1,
      "byteOffset": 1728,
      "componentType": 5126,
      "count": 458,
      "max": [
        0.9824000000953674,
        1.930400013923645
      ],
      "min": [
        0.039000000804662704,
        1.0600000619888306
      ],
      "type": "VEC2"
    },
    {
      "bufferView": 0,
      "byteOffset": 2832,
      "componentType": 5125,
      "count": 2124,
      "type": "SCALAR"
    },
    {
      "bufferView": 2,
      "byteOffset": 16176,
      "componentType": 5126,
      "count": 777,
      "max": [
        232.5447998046875,
        560.9630126953125,
        39.656494140625
      ],
      "min": [
        -232.5247802734375,
        28.6810302734375,
        -38.157997131347656
      ],
      "type": "VEC3"
    },
    {
      "bufferView": 2,
      "byteOffset": 25500,
      "componentType": 5126,
      "count": 777,
      "max": [
        0.9996110200881958,
        0.9997493624687195,
        0.9999626874923706
      ],
      "min": [
        -0.9996110200881958,
        -0.9999998807907104,
        -0.9997884035110474
      ],
      "type": "VEC3"
    },
    {
      "bufferView": 1,
      "byteOffset": 5392,
      "componentType": 5126,
      "count": 777,
      "max": [
        0.9975000023841858,
        1.9884999990463257
      ],
      "min": [
        0.0032999999821186066,
        1.0033000707626343
      ],
      "type": "VEC2"
    },
    {
      "bufferView": 0,
      "byteOffset": 11328,
      "componentType": 5125,
      "count": 3795,
      "type": "SCALAR"
    },
    {
      "bufferView": 2,
      "byteOffset": 34824,
      "componentType": 5126,
      "count": 1788,
      "max": [
        158.66819763183594,
        656.5592041015625,
        77.14360046386719
      ],
      "min": [
        -158.65609741210938,
        0.493927001953125,
        -161.1466827392578
      ],
      "type": "VEC3"
    },
    {
      "bufferView": 2,
      "byteOffset": 56280,
      "componentType": 5126,
      "count": 1788,
      "max": [
        0.9998788833618164,
        0.9977911114692688,
        0.9999993443489075
      ],
      "min": [
        -0.9998722076416016,
        -0.9998347759246826,
        -0.9998165965080261
      ],
      "type": "VEC3"
    },
    {
      "bufferView": 1,
      "byteOffset": 11608,
      "componentType": 5126,
      "count": 1788,
      "max": [
        0.9984999895095825,
        1.9970999956130981
      ],
      "min": [
        0.003800000064074993,
        1.003600001335144
      ],
      "type": "VEC2"
    },
    {
      "bufferView": 0,
      "byteOffset": 26508,
      "componentType": 5125,
      "count": 7377,
      "type": "SCALAR"
    },
    {
      "bufferView": 2,
      "byteOffset": 77736,
      "componentType": 5126,
      "count": 134,
      "max": [
        29.192399978637695,
        619.6976318359375,
        33.299198150634766
      ],
      "min": [
        -29.613000869750977,
        559.5860595703125,
        -7.079401969909668
      ],
      "type": "VEC3"
    },
    {
      "bufferView": 2,
      "byteOffset": 79344,
      "componentType": 5126,
      "count": 134,
      "max": [
        0.9684817790985107,
        0.7046607136726379,
        0.9962351322174072
      ],
      "min": [
        -0.9685377478599548,
        -0.9986080527305603,
        -0.3194422125816345
      ],
      "type": "VEC3"
    },
    {
      "bufferView": 1,
      "byteOffset": 25912,
      "componentType": 5126,
      "count": 134,
      "max": [
        0.9969000220298767,
        1.9951999187469482
      ],
      "min": [
        0.003800000064074993,
        1.0038000345230103
      ],
      "type": "VEC2"
    },
    {
      "bufferView": 0,
      "byteOffset": 56016,
      "componentType": 5125,
      "count": 714,
      "type": "SCALAR"
    }
  ],
  "asset": {
    "extras": {
      "author": "deankagura (https://sketchfab.com/deankagura)",
      "license": "CC-BY-4.0 (http://creativecommons.org/licenses/by/4.0/)",
      "source": "https://sketchfab.com/3d-models/sango-ce14690f27054aa597143dea9d179706",
      "title": "Sango"
    },
    "generator": "Sketchfab-15.47.0",
    "version": "2.0"
  },
  "bufferViews": [
    {
      "buffer": 0,
      "byteLength": 58872,
      "name": "floatBufferViews",
      "target": 34963
    },
    {
      "buffer": 0,
      "byteLength": 26984,
      "byteOffset": 58872,
      "byteStride": 8,
      "name": "floatBufferViews",
      "target": 34962
    },
    {
      "buffer": 0,
      "byteLength": 80952,
      "byteOffset": 85856,
      "byteStride": 12,
      "name": "floatBufferViews",
      "target": 34962
    }
  ],
  "buffers": [
    {
      "byteLength": 166808,
      "uri": "scene.bin"
    }
  ],
  "images": [
    {
      "uri": "textures/handbottom_baseColor.png"
    },
    {
      "uri": "textures/handtop_baseColor.png"
    },
    {
      "uri": "textures/body_baseColor.png"
    },
    {
      "uri": "textures/cloth_baseColor.png"
    },
    {
      "uri": "textures/face_baseColor.png"
    }
  ],
  "materials": [
    {
      "doubleSided": true,
      "name": "handbottom",
      "pbrMetallicRoughness": {
        "baseColorTexture": {
          "index": 0
        },
        "metallicFactor": 0.0,
        "roughnessFactor": 0.9577051494623774
      }
    },
    {
      "doubleSided": true,
      "name": "handtop",
      "pbrMetallicRoughness": {
        "baseColorTexture": {
          "index": 1
        },
        "metallicFactor": 0.0,
        "roughnessFactor": 0.9577051494623774
      }
    },
    {
      "doubleSided": true,
      "name": "body",
      "pbrMetallicRoughness": {
        "baseColorTexture": {
          "index": 2
        },
        "metallicFactor": 0.0,
        "roughnessFactor": 0.9577051494623774
      }
    },
    {
      "doubleSided": true,
      "name": "cloth",
      "pbrMetallicRoughness": {
        "baseColorTexture": {
          "index": 3
        },
        "metallicFactor": 0.0,
        "roughnessFactor": 0.9577051494623774
      }
    },
    {
      "doubleSided": true,
      "name": "face",
      "pbrMetallicRoughness": {
        "baseColorTexture": {
          "index": 4
        },
        "metallicFactor": 0.0,
        "roughnessFactor": 0.9577051494623774
      }
    }
  ],
  "meshes": [
    {
      "name": "mesh0_handbottom_0",
      "primitives": [
        {
          "attributes": {
            "NORMAL": 1,
            "POSITION": 0,
            "TEXCOORD_0": 2
          },
          "indices": 3,
          "material": 0,
          "mode": 4
        }
      ]
    },
    {
      "name": "mesh1_handtop_0",
      "primitives": [
        {
          "attributes": {
            "NORMAL": 5,
            "POSITION": 4,
            "TEXCOORD_0": 6
          },
          "indices": 7,
          "material": 1,
          "mode": 4
        }
      ]
    },
    {
      "name": "mesh2_body_0",
      "primitives": [
        {
          "attributes": {
            "NORMAL": 9,
            "POSITION": 8,
            "TEXCOORD_0": 10
          },
          "indices": 11,
          "material": 2,
          "mode": 4
        }
      ]
    },
    {
      "name": "mesh3_cloth_0",
      "primitives": [
        {
          "attributes": {
            "NORMAL": 13,
            "POSITION": 12,
            "TEXCOORD_0": 14
          },
          "indices": 15,
          "material": 3,
          "mode": 4
        }
      ]
    },
    {
      "name": "mesh4_face_0",
      "primitives": [
        {
          "attributes": {
            "NORMAL": 17,
            "POSITION": 16,
            "TEXCOORD_0": 18
          },
          "indices": 19,
          "material": 4,
          "mode": 4
        }
      ]
    }
  ],
  "nodes": [
    {
      "children": [
        1
      ],
      "matrix": [
        1.0,
        0.0,
        0.0,
        0.0,
        0.0,
        2.220446049250313e-16,
        -1.0,
        0.0,
        0.0,
        1.0,
        2.220446049250313e-16,
        0.0,
        0.0,
        0.0,
        0.0,
        1.0
      ],
      "name": "Sketchfab_model"
    },
    {
      "children": [
        2
      ],
      "matrix": [
        0.009999999776482582,
        0.0,
        0.0,
        0.0,
        0.0,
        0.0,
        0.009999999776482582,
        0.0,
        0.0,
        -0.009999999776482582,
        0.0,
        0.0,
        0.0,
        0.0,
        0.0,
        1.0
      ],
      "name": "Sango.fbx"
    },
    {
      "children": [
        3,
        5,
        7,
        9,
        11
      ],
      "name": "RootNode"
    },
    {
      "children": [
        4
      ],
      "name": "mesh0"
    },
    {
      "mesh": 0,
      "name": "mesh0_handbottom_0"
    },
    {
      "children": [
        6
      ],
      "name": "mesh1"
    },
    {
      "mesh": 1,
      "name": "mesh1_handtop_0"
    },
    {
      "children": [
        8
      ],
      "name": "mesh2"
    },
    {
      "mesh": 2,
      "name": "mesh2_body_0"
    },
    {
      "children": [
        10
      ],
      "name": "mesh3"
    },
    {
      "mesh": 3,
      "name": "mesh3_cloth_0"
    },
    {
      "children": [
        12
      ],
      "name": "mesh4"
    },
    {
      "mesh": 4,
      "name": "mesh4_face_0"
    }
  ],
  "samplers": [
    {
      "magFilter": 9729,
      "minFilter": 9987,
      "wrapS": 10497,
      "wrapT": 10497
    }
  ],
  "scene": 0,
  "scenes": [
    {
      "name": "Sketchfab_Scene",
      "nodes": [
        0
      ]
    }
  ],
  "textures": [
    {
      "sampler": 0,
      "source": 0
    },
    {
      "sampler": 0,
      "source": 1
    },
    {
      "sampler": 0,
      "source": 2
    },
    {
      "sampler": 0,
      "source": 3
    },
    {
      "sampler": 0,
      "source": 4
    }
  ]
}
