{
  "accessors": [
    {
      "bufferView": 2,
      "componentType": 5126,
      "count": 1022,
      "max": [
        351.2375183105469,
        567.3046875,
        18.69609832763672
      ],
      "min": [
        -351.21759033203125,
        518.8494873046875,
        -46.63969802856445
      ],
      "type": "VEC3"
    },
    {
      "bufferView": 2,
      "byteOffset": 12264,
      "componentType": 5126,
      "count": 1022,
      "max": [
        0.991225004196167,
        0.9986410140991211,
        0.9968028664588928
      ],
      "min": [
        -0.9912256598472595,
        -0.9902893304824829,
        -0.992979109287262
      ],
      "type": "VEC3"
    },
    {
      "bufferView": 1,
      "componentType": 5126,
      "count": 1022,
      "max": [
        0.9824000000953674,
        1.930400013923645
      ],
      "min": [
        0.039000000804662704,
        1.0039000511169434
      ],
      "type": "VEC2"
    },
    {
      "bufferView": 0,
      "componentType": 5125,
      "count": 4320,
      "type": "SCALAR"
    },
    {
      "bufferView": 2,
      "byteOffset": 24528,
      "componentType": 5126,
      "count": 1549,
      "max": [
        317.9913330078125,
        695.6986083984375,
        124.55220031738281
      ],
      "min": [
        -317.5228271484375,
        1.3442989587783813,
        -283.7301025390625
      ],
      "type": "VEC3"
    },
    {
      "bufferView": 2,
      "byteOffset": 43116,
      "componentType": 5126,
      "count": 1549,
      "max": [
        0.999846875667572,
        0.9997073411941528,
        0.9999755024909973
      ],
      "min": [
        -0.9998824596405029,
        -0.9999297857284546,
        -0.9999638795852661
      ],
      "type": "VEC3"
    },
    {
      "bufferView": 1,
      "byteOffset": 8176,
      "componentType": 5126,
      "count": 1549,
      "max": [
        0.9975000023841858,
        1.9974000453948975
      ],
      "min": [
        0.0035000001080334187,
        1.0052000284194946
      ],
      "type": "VEC2"
    },
    {
      "bufferView": 0,
      "byteOffset": 17280,
      "componentType": 5125,
      "count": 5580,
      "type": "SCALAR"
    },
    {
      "bufferView": 2,
      "byteOffset": 61704,
      "componentType": 5126,
      "count": 185,
      "max": [
        32.07210159301758,
        660.3555297851563,
        38.8224983215332
      ],
      "min": [
        -32.028499603271484,
        566.7775268554688,
        -30.805400848388672
      ],
      "type": "VEC3"
    },
    {
      "bufferView": 2,
      "byteOffset": 63924,
      "componentType": 5126,
      "count": 185,
      "max": [
        0.9935891032218933,
        0.6914650201797485,
        0.9980917572975159
      ],
      "min": [
        -0.9936007857322693,
        -0.9859887361526489,
        -0.9955753684043884
      ],
      "type": "VEC3"
    },
    {
      "bufferView": 1,
      "byteOffset": 20568,
      "componentType": 5126,
      "count": 185,
      "max": [
        1.0,
        2.9976000785827637
      ],
      "min": [
        0.0,
        1.994499921798706
      ],
      "type": "VEC2"
    },
    {
      "bufferView": 0,
      "byteOffset": 39600,
      "componentType": 5125,
      "count": 936,
      "type": "SCALAR"
    },
    {
      "bufferView": 2,
      "byteOffset": 66144,
      "componentType": 5126,
      "count": 579,
      "max": [
        316.626220703125,
        605.6768798828125,
        67.19449615478516
      ],
      "min": [
        -316.606201171875,
        44.515289306640625,
        -120.8349838256836
      ],
      "type": "VEC3"
    },
    {
      "bufferView": 2,
      "byteOffset": 73092,
      "componentType": 5126,
      "count": 579,
      "max": [
        0.9994664788246155,
        0.9995584487915039,
        0.999876856803894
      ],
      "min": [
        -0.9994664788246155,
        -0.996848464012146,
        -0.9999962449073792
      ],
      "type": "VEC3"
    },
    {
      "bufferView": 1,
      "byteOffset": 22048,
      "componentType": 5126,
      "count": 579,
      "max": [
        0.9959999918937683,
        1.9983000755310059
      ],
      "min": [
        0.0012000000569969416,
        1.0020999908447266
      ],
      "type": "VEC2"
    },
    {
      "bufferView": 0,
      "byteOffset": 43344,
      "componentType": 5125,
      "count": 2496,
      "type": "SCALAR"
    }
  ],
  "asset": {
    "extras": {
      "author": "deankagura (https://sketchfab.com/deankagura)",
      "license": "CC-BY-4.0 (http://creativecommons.org/licenses/by/4.0/)",
      "source": "https://sketchfab.com/3d-models/inuyasha-78a46b41520b4952b487f5013337b18a",
      "title": "Inuyasha"
    },
    "generator": "Sketchfab-15.47.0",
    "version": "2.0"
  },
  "bufferViews": [
    {
      "buffer": 0,
      "byteLength": 53328,
      "name": "floatBufferViews",
      "target": 34963
    },
    {
      "buffer": 0,
      "byteLength": 26680,
      "byteOffset": 53328,
      "byteStride": 8,
      "name": "floatBufferViews",
      "target": 34962
    },
    {
      "buffer": 0,
      "byteLength": 80040,
      "byteOffset": 80008,
      "byteStride": 12,
      "name": "floatBufferViews",
      "target": 34962
    }
  ],
  "buffers": [
    {
      "byteLength": 160048,
      "uri": "scene.bin"
    }
  ],
  "images": [
    {
      "uri": "textures/hand.png_baseColor.png"
    },
    {
      "uri": "textures/body.png_baseColor.png"
    },
    {
      "uri": "textures/face.png_baseColor.png"
    },
    {
      "uri": "textures/clothing.png_baseColor.png"
    }
  ],
  "materials": [
    {
      "doubleSided": true,
      "name": "hand.png",
      "pbrMetallicRoughness": {
        "baseColorTexture": {
          "index": 0
        },
        "metallicFactor": 0.0,
        "roughnessFactor": 0.9577051494623774
      }
    },
    {
      "doubleSided": true,
      "name": "body.png",
      "pbrMetallicRoughness": {
        "baseColorTexture": {
          "index": 1
        },
        "metallicFactor": 0.0,
        "roughnessFactor": 0.9577051494623774
      }
    },
    {
      "doubleSided": true,
      "name": "face.png",
      "pbrMetallicRoughness": {
        "baseColorTexture": {
          "index": 2
        },
        "metallicFactor": 0.0,
        "roughnessFactor": 0.9577051494623774
      }
    },
    {
      "doubleSided": true,
      "name": "clothing.png",
      "pbrMetallicRoughness": {
        "baseColorTexture": {
          "index": 3
        },
        "metallicFactor": 0.0,
        "roughnessFactor": 0.9577051494623774
      }
    }
  ],
  "meshes": [
    {
      "name": "rdmobj00_hand.png_0",
      "primitives": [
        {
          "attributes": {
            "NORMAL": 1,
            "POSITION": 0,
            "TEXCOORD_0": 2
          },
          "indices": 3,
          "material": 0,
          "mode": 4
        }
      ]
    },
    {
      "name": "rdmobj01_body.png_0",
      "primitives": [
        {
          "attributes": {
            "NORMAL": 5,
            "POSITION": 4,
            "TEXCOORD_0": 6
          },
          "indices": 7,
          "material": 1,
          "mode": 4
        }
      ]
    },
    {
      "name": "rdmobj02_face.png_0",
      "primitives": [
        {
          "attributes": {
            "NORMAL": 9,
            "POSITION": 8,
            "TEXCOORD_0": 10
          },
          "indices": 11,
          "material": 2,
          "mode": 4
        }
      ]
    },
    {
      "name": "rdmobj03_clothing.png_0",
      "primitives": [
        {
          "attributes": {
            "NORMAL": 13,
            "POSITION": 12,
            "TEXCOORD_0": 14
          },
          "indices": 15,
          "material": 3,
          "mode": 4
        }
      ]
    }
  ],
  "nodes": [
    {
      "children": [
        1
      ],
      "matrix": [
        1.0,
        0.0,
        0.0,
        0.0,
        0.0,
        2.220446049250313e-16,
        -1.0,
        0.0,
        0.0,
        1.0,
        2.220446049250313e-16,
        0.0,
        0.0,
        0.0,
        0.0,
        1.0
      ],
      "name": "Sketchfab_model"
    },
    {
      "children": [
        2
      ],
      "matrix": [
        0.009999999776482582,
        0.0,
        0.0,
        0.0,
        0.0,
        0.0,
        0.009999999776482582,
        0.0,
        0.0,
        -0.009999999776482582,
        0.0,
        0.0,
        0.0,
        0.0,
        0.0,
        1.0
      ],
      "name": "Inuyashaout.fbx"
    },
    {
      "children": [
        3,
        5,
        7,
        9
      ],
      "name": "RootNode"
    },
    {
      "children": [
        4
      ],
      "name": "rdmobj00"
    },
    {
      "mesh": 0,
      "name": "rdmobj00_hand.png_0"
    },
    {
      "children": [
        6
      ],
      "name": "rdmobj01"
    },
    {
      "mesh": 1,
      "name": "rdmobj01_body.png_0"
    },
    {
      "children": [
        8
      ],
      "name": "rdmobj02"
    },
    {
      "mesh": 2,
      "name": "rdmobj02_face.png_0"
    },
    {
      "children": [
        10
      ],
      "name": "rdmobj03"
    },
    {
      "mesh": 3,
      "name": "rdmobj03_clothing.png_0"
    }
  ],
  "samplers": [
    {
      "magFilter": 9729,
      "minFilter": 9987,
      "wrapS": 10497,
      "wrapT": 10497
    }
  ],
  "scene": 0,
  "scenes": [
    {
      "name": "Sketchfab_Scene",
      "nodes": [
        0
      ]
    }
  ],
  "textures": [
    {
      "sampler": 0,
      "source": 0
    },
    {
      "sampler": 0,
      "source": 1
    },
    {
      "sampler": 0,
      "source": 2
    },
    {
      "sampler": 0,
      "source": 3
    }
  ]
}
