{
  "accessors": [
    {
      "bufferView": 2,
      "componentType": 5126,
      "count": 432,
      "max": [
        193.63751220703125,
        670.7177124023438,
        84.11070251464844
      ],
      "min": [
        -193.61749267578125,
        173.92822265625,
        -116.8656005859375
      ],
      "type": "VEC3"
    },
    {
      "bufferView": 2,
      "byteOffset": 5184,
      "componentType": 5126,
      "count": 432,
      "max": [
        0.9987748861312866,
        0.9998800158500671,
        0.9992433190345764
      ],
      "min": [
        -0.9987766742706299,
        -0.998885989189148,
        -0.9988527297973633
      ],
      "type": "VEC3"
    },
    {
      "bufferView": 1,
      "componentType": 5126,
      "count": 432,
      "max": [
        0.9959999918937683,
        1.9983000755310059
      ],
      "min": [
        0.0012000000569969416,
        1.0019999742507935
      ],
      "type": "VEC2"
    },
    {
      "bufferView": 0,
      "componentType": 5125,
      "count": 1779,
      "type": "SCALAR"
    },
    {
      "bufferView": 2,
      "byteOffset": 10368,
      "componentType": 5126,
      "count": 3884,
      "max": [
        280.00848388671875,
        803.258056640625,
        123.91889953613281
      ],
      "min": [
        -279.9925537109375,
        0.30499267578125,
        -471.90899658203125
      ],
      "type": "VEC3"
    },
    {
      "bufferView": 2,
      "byteOffset": 56976,
      "componentType": 5126,
      "count": 3884,
      "max": [
        0.9999998211860657,
        0.9978477358818054,
        0.9999972581863403
      ],
      "min": [
        -0.9999768137931824,
        -0.9999726414680481,
        -0.9992490410804749
      ],
      "type": "VEC3"
    },
    {
      "bufferView": 1,
      "byteOffset": 3456,
      "componentType": 5126,
      "count": 3884,
      "max": [
        0.9984999895095825,
        1.9976000785827637
      ],
      "min": [
        0.0013000000035390258,
        1.0011000633239746
      ],
      "type": "VEC2"
    },
    {
      "bufferView": 0,
      "byteOffset": 7116,
      "componentType": 5125,
      "count": 15201,
      "type": "SCALAR"
    },
    {
      "bufferView": 2,
      "byteOffset": 103584,
      "componentType": 5126,
      "count": 214,
      "max": [
        354.8017578125,
        601.09375,
        15.088699340820313
      ],
      "min": [
        -354.954833984375,
        567.10791015625,
        -32.890403747558594
      ],
      "type": "VEC3"
    },
    {
      "bufferView": 2,
      "byteOffset": 106152,
      "componentType": 5126,
      "count": 214,
      "max": [
        0.9894046187400818,
        0.9999061226844788,
        0.2742800712585449
      ],
      "min": [
        -0.9894539713859558,
        -0.9981555342674255,
        -0.9746755957603455
      ],
      "type": "VEC3"
    },
    {
      "bufferView": 1,
      "byteOffset": 34528,
      "componentType": 5126,
      "count": 214,
      "max": [
        0.9785000085830688,
        1.9296000003814697
      ],
      "min": [
        0.039000000804662704,
        1.0702999830245972
      ],
      "type": "VEC2"
    },
    {
      "bufferView": 0,
      "byteOffset": 67920,
      "componentType": 5125,
      "count": 708,
      "type": "SCALAR"
    },
    {
      "bufferView": 2,
      "byteOffset": 108720,
      "componentType": 5126,
      "count": 459,
      "max": [
        354.80560302734375,
        606.664306640625,
        15.808601379394531
      ],
      "min": [
        -354.95880126953125,
        563.3195190429688,
        -33.33100128173828
      ],
      "type": "VEC3"
    },
    {
      "bufferView": 2,
      "byteOffset": 114228,
      "componentType": 5126,
      "count": 459,
      "max": [
        0.994911789894104,
        0.9992066025733948,
        0.9976226687431335
      ],
      "min": [
        -0.9948887825012207,
        -0.9450275897979736,
        -0.999663770198822
      ],
      "type": "VEC3"
    },
    {
      "bufferView": 1,
      "byteOffset": 36240,
      "componentType": 5126,
      "count": 459,
      "max": [
        0.9824000000953674,
        1.930400013923645
      ],
      "min": [
        0.039000000804662704,
        1.0600000619888306
      ],
      "type": "VEC2"
    },
    {
      "bufferView": 0,
      "byteOffset": 70752,
      "componentType": 5125,
      "count": 2124,
      "type": "SCALAR"
    },
    {
      "bufferView": 2,
      "byteOffset": 119736,
      "componentType": 5126,
      "count": 115,
      "max": [
        28.55120086669922,
        717.17822265625,
        42.38669967651367
      ],
      "min": [
        -28.720001220703125,
        650.2215576171875,
        2.043498992919922
      ],
      "type": "VEC3"
    },
    {
      "bufferView": 2,
      "byteOffset": 121116,
      "componentType": 5126,
      "count": 115,
      "max": [
        0.9909378886222839,
        0.6660905480384827,
        0.9964770078659058
      ],
      "min": [
        -0.989507794380188,
        -0.9953790903091431,
        -0.33702558279037476
      ],
      "type": "VEC3"
    },
    {
      "bufferView": 1,
      "byteOffset": 39912,
      "componentType": 5126,
      "count": 115,
      "max": [
        0.9980000257492065,
        1.9986000061035156
      ],
      "min": [
        0.0015999999595806003,
        1.0011000633239746
      ],
      "type": "VEC2"
    },
    {
      "bufferView": 0,
      "byteOffset": 79248,
      "componentType": 5125,
      "count": 612,
      "type": "SCALAR"
    }
  ],
  "asset": {
    "extras": {
      "author": "deankagura (https://sketchfab.com/deankagura)",
      "license": "CC-BY-4.0 (http://creativecommons.org/licenses/by/4.0/)",
      "source": "https://sketchfab.com/3d-models/naraku-3312dfe1d19342feb6b68a7405524bf4",
      "title": "Naraku"
    },
    "generator": "Sketchfab-15.47.0",
    "version": "2.0"
  },
  "bufferViews": [
    {
      "buffer": 0,
      "byteLength": 81696,
      "name": "floatBufferViews",
      "target": 34963
    },
    {
      "buffer": 0,
      "byteLength": 40832,
      "byteOffset": 81696,
      "byteStride": 8,
      "name": "floatBufferViews",
      "target": 34962
    },
    {
      "buffer": 0,
      "byteLength": 122496,
      "byteOffset": 122528,
      "byteStride": 12,
      "name": "floatBufferViews",
      "target": 34962
    }
  ],
  "buffers": [
    {
      "byteLength": 245024,
      "uri": "scene.bin"
    }
  ],
  "images": [
    {
      "uri": "textures/body_baseColor.png"
    },
    {
      "uri": "textures/cloth_baseColor.png"
    },
    {
      "uri": "textures/handbottom_baseColor.png"
    },
    {
      "uri": "textures/handtop_baseColor.png"
    },
    {
      "uri": "textures/face_baseColor.png"
    }
  ],
  "materials": [
    {
      "doubleSided": true,
      "name": "body",
      "pbrMetallicRoughness": {
        "baseColorTexture": {
          "index": 0
        },
        "metallicFactor": 0.0,
        "roughnessFactor": 0.9577051494623774
      }
    },
    {
      "doubleSided": true,
      "name": "cloth",
      "pbrMetallicRoughness": {
        "baseColorTexture": {
          "index": 1
        },
        "metallicFactor": 0.0,
        "roughnessFactor": 0.9577051494623774
      }
    },
    {
      "doubleSided": true,
      "name": "handbottom",
      "pbrMetallicRoughness": {
        "baseColorTexture": {
          "index": 2
        },
        "metallicFactor": 0.0,
        "roughnessFactor": 0.9577051494623774
      }
    },
    {
      "doubleSided": true,
      "name": "handtop",
      "pbrMetallicRoughness": {
        "baseColorTexture": {
          "index": 3
        },
        "metallicFactor": 0.0,
        "roughnessFactor": 0.9577051494623774
      }
    },
    {
      "doubleSided": true,
      "name": "face",
      "pbrMetallicRoughness": {
        "baseColorTexture": {
          "index": 4
        },
        "metallicFactor": 0.0,
        "roughnessFactor": 0.9577051494623774
      }
    }
  ],
  "meshes": [
    {
      "name": "mesh0_body_0",
      "primitives": [
        {
          "attributes": {
            "NORMAL": 1,
            "POSITION": 0,
            "TEXCOORD_0": 2
          },
          "indices": 3,
          "material": 0,
          "mode": 4
        }
      ]
    },
    {
      "name": "mesh1_cloth_0",
      "primitives": [
        {
          "attributes": {
            "NORMAL": 5,
            "POSITION": 4,
            "TEXCOORD_0": 6
          },
          "indices": 7,
          "material": 1,
          "mode": 4
        }
      ]
    },
    {
      "name": "mesh2_handbottom_0",
      "primitives": [
        {
          "attributes": {
            "NORMAL": 9,
            "POSITION": 8,
            "TEXCOORD_0": 10
          },
          "indices": 11,
          "material": 2,
          "mode": 4
        }
      ]
    },
    {
      "name": "mesh3_handtop_0",
      "primitives": [
        {
          "attributes": {
            "NORMAL": 13,
            "POSITION": 12,
            "TEXCOORD_0": 14
          },
          "indices": 15,
          "material": 3,
          "mode": 4
        }
      ]
    },
    {
      "name": "mesh4_face_0",
      "primitives": [
        {
          "attributes": {
            "NORMAL": 17,
            "POSITION": 16,
            "TEXCOORD_0": 18
          },
          "indices": 19,
          "material": 4,
          "mode": 4
        }
      ]
    }
  ],
  "nodes": [
    {
      "children": [
        1
      ],
      "matrix": [
        1.0,
        0.0,
        0.0,
        0.0,
        0.0,
        2.220446049250313e-16,
        -1.0,
        0.0,
        0.0,
        1.0,
        2.220446049250313e-16,
        0.0,
        0.0,
        0.0,
        0.0,
        1.0
      ],
      "name": "Sketchfab_model"
    },
    {
      "children": [
        2
      ],
      "matrix": [
        0.009999999776482582,
        0.0,
        0.0,
        0.0,
        0.0,
        0.0,
        0.009999999776482582,
        0.0,
        0.0,
        -0.009999999776482582,
        0.0,
        0.0,
        0.0,
        0.0,
        0.0,
        1.0
      ],
      "name": "Naraku.fbx"
    },
    {
      "children": [
        3,
        5,
        7,
        9,
        11
      ],
      "name": "RootNode"
    },
    {
      "children": [
        4
      ],
      "name": "mesh0"
    },
    {
      "mesh": 0,
      "name": "mesh0_body_0"
    },
    {
      "children": [
        6
      ],
      "name": "mesh1"
    },
    {
      "mesh": 1,
      "name": "mesh1_cloth_0"
    },
    {
      "children": [
        8
      ],
      "name": "mesh2"
    },
    {
      "mesh": 2,
      "name": "mesh2_handbottom_0"
    },
    {
      "children": [
        10
      ],
      "name": "mesh3"
    },
    {
      "mesh": 3,
      "name": "mesh3_handtop_0"
    },
    {
      "children": [
        12
      ],
      "name": "mesh4"
    },
    {
      "mesh": 4,
      "name": "mesh4_face_0"
    }
  ],
  "samplers": [
    {
      "magFilter": 9729,
      "minFilter": 9987,
      "wrapS": 10497,
      "wrapT": 10497
    }
  ],
  "scene": 0,
  "scenes": [
    {
      "name": "Sketchfab_Scene",
      "nodes": [
        0
      ]
    }
  ],
  "textures": [
    {
      "sampler": 0,
      "source": 0
    },
    {
      "sampler": 0,
      "source": 1
    },
    {
      "sampler": 0,
      "source": 2
    },
    {
      "sampler": 0,
      "source": 3
    },
    {
      "sampler": 0,
      "source": 4
    }
  ]
}
