{
  "accessors": [
    {
      "bufferView": 2,
      "componentType": 5126,
      "count": 1484,
      "max": [
        86.1489028930664,
        382.42010498046875,
        213.1925048828125
      ],
      "min": [
        -105.06689453125,
        0.09259033203125,
        -362.37591552734375
      ],
      "type": "VEC3"
    },
    {
      "bufferView": 2,
      "byteOffset": 17808,
      "componentType": 5126,
      "count": 1484,
      "max": [
        0.9978224635124207,
        0.9993484616279602,
        0.9986633062362671
      ],
      "min": [
        -0.9983466267585754,
        -0.9999971985816956,
        -0.998286783695221
      ],
      "type": "VEC3"
    },
    {
      "bufferView": 1,
      "componentType": 5126,
      "count": 1484,
      "max": [
        0.9948999881744385,
        1.9678000211715698
      ],
      "min": [
        0.00570000009611249,
        1.0012000799179077
      ],
      "type": "VEC2"
    },
    {
      "bufferView": 0,
      "componentType": 5125,
      "count": 6096,
      "type": "SCALAR"
    },
    {
      "bufferView": 2,
      "byteOffset": 35616,
      "componentType": 5126,
      "count": 242,
      "max": [
        68.96160125732422,
        232.12289428710938,
        166.67820739746094
      ],
      "min": [
        -68.9457015991211,
        69.53439331054688,
        59.925506591796875
      ],
      "type": "VEC3"
    },
    {
      "bufferView": 2,
      "byteOffset": 38520,
      "componentType": 5126,
      "count": 242,
      "max": [
        0.9889500737190247,
        0.9997240900993347,
        0.9953492879867554
      ],
      "min": [
        -0.9889500737190247,
        -0.9942665696144104,
        -0.9999856352806091
      ],
      "type": "VEC3"
    },
    {
      "bufferView": 1,
      "byteOffset": 11872,
      "componentType": 5126,
      "count": 242,
      "max": [
        1.0,
        1.9886999130249023
      ],
      "min": [
        0.0,
        1.003499984741211
      ],
      "type": "VEC2"
    },
    {
      "bufferView": 0,
      "byteOffset": 24384,
      "componentType": 5125,
      "count": 1440,
      "type": "SCALAR"
    }
  ],
  "asset": {
    "extras": {
      "author": "deankagura (https://sketchfab.com/deankagura)",
      "license": "CC-BY-4.0 (http://creativecommons.org/licenses/by/4.0/)",
      "source": "https://sketchfab.com/3d-models/kirara-d6250ce5a6e04d9e9ce5377744e6177b",
      "title": "Kirara"
    },
    "generator": "Sketchfab-15.47.0",
    "version": "2.0"
  },
  "bufferViews": [
    {
      "buffer": 0,
      "byteLength": 30144,
      "name": "floatBufferViews",
      "target": 34963
    },
    {
      "buffer": 0,
      "byteLength": 13808,
      "byteOffset": 30144,
      "byteStride": 8,
      "name": "floatBufferViews",
      "target": 34962
    },
    {
      "buffer": 0,
      "byteLength": 41424,
      "byteOffset": 43952,
      "byteStride": 12,
      "name": "floatBufferViews",
      "target": 34962
    }
  ],
  "buffers": [
    {
      "byteLength": 85376,
      "uri": "scene.bin"
    }
  ],
  "images": [
    {
      "uri": "textures/body_baseColor.png"
    },
    {
      "uri": "textures/material_baseColor.png"
    }
  ],
  "materials": [
    {
      "doubleSided": true,
      "name": "body",
      "pbrMetallicRoughness": {
        "baseColorTexture": {
          "index": 0
        },
        "metallicFactor": 0.0,
        "roughnessFactor": 0.9577051494623774
      }
    },
    {
      "doubleSided": true,
      "name": "material",
      "pbrMetallicRoughness": {
        "baseColorTexture": {
          "index": 1
        },
        "metallicFactor": 0.0,
        "roughnessFactor": 0.9577051494623774
      }
    }
  ],
  "meshes": [
    {
      "name": "mesh0_body_0",
      "primitives": [
        {
          "attributes": {
            "NORMAL": 1,
            "POSITION": 0,
            "TEXCOORD_0": 2
          },
          "indices": 3,
          "material": 0,
          "mode": 4
        }
      ]
    },
    {
      "name": "mesh1_fur_0",
      "primitives": [
        {
          "attributes": {
            "NORMAL": 5,
            "POSITION": 4,
            "TEXCOORD_0": 6
          },
          "indices": 7,
          "material": 1,
          "mode": 4
        }
      ]
    }
  ],
  "nodes": [
    {
      "children": [
        1
      ],
      "matrix": [
        1.0,
        0.0,
        0.0,
        0.0,
        0.0,
        2.220446049250313e-16,
        -1.0,
        0.0,
        0.0,
        1.0,
        2.220446049250313e-16,
        0.0,
        0.0,
        0.0,
        0.0,
        1.0
      ],
      "name": "Sketchfab_model"
    },
    {
      "children": [
        2
      ],
      "matrix": [
        0.009999999776482582,
        0.0,
        0.0,
        0.0,
        0.0,
        0.0,
        0.009999999776482582,
        0.0,
        0.0,
        -0.009999999776482582,
        0.0,
        0.0,
        0.0,
        0.0,
        0.0,
        1.0
      ],
      "name": "Kirara.fbx"
    },
    {
      "children": [
        3,
        5
      ],
      "name": "RootNode"
    },
    {
      "children": [
        4
      ],
      "name": "mesh0"
    },
    {
      "mesh": 0,
      "name": "mesh0_body_0"
    },
    {
      "children": [
        6
      ],
      "name": "mesh1"
    },
    {
      "mesh": 1,
      "name": "mesh1_fur_0"
    }
  ],
  "samplers": [
    {
      "magFilter": 9729,
      "minFilter": 9987,
      "wrapS": 10497,
      "wrapT": 10497
    }
  ],
  "scene": 0,
  "scenes": [
    {
      "name": "Sketchfab_Scene",
      "nodes": [
        0
      ]
    }
  ],
  "textures": [
    {
      "sampler": 0,
      "source": 0
    },
    {
      "sampler": 0,
      "source": 1
    }
  ]
}
