{
  "accessors": [
    {
      "bufferView": 2,
      "componentType": 5126,
      "count": 1651,
      "max": [
        254.55160522460938,
        558.7374877929688,
        65.99580383300781
      ],
      "min": [
        -254.53970336914063,
        0.4297981262207031,
        -125.85359954833984
      ],
      "type": "VEC3"
    },
    {
      "bufferView": 2,
      "byteOffset": 19812,
      "componentType": 5126,
      "count": 1651,
      "max": [
        0.9999349117279053,
        0.9984662532806396,
        0.9987886548042297
      ],
      "min": [
        -0.9993526935577393,
        -0.9982225298881531,
        -0.999962568283081
      ],
      "type": "VEC3"
    },
    {
      "bufferView": 1,
      "componentType": 5126,
      "count": 1651,
      "max": [
        0.9975000023841858,
        1.9983000755310059
      ],
      "min": [
        0.000699999975040555,
        1.0045000314712524
      ],
      "type": "VEC2"
    },
    {
      "bufferView": 0,
      "componentType": 5125,
      "count": 6477,
      "type": "SCALAR"
    },
    {
      "bufferView": 2,
      "byteOffset": 39624,
      "componentType": 5126,
      "count": 53,
      "max": [
        107.51750183105469,
        422.1412048339844,
        93.40740966796875
      ],
      "min": [
        29.27280044555664,
        210.05331420898438,
        -220.14898681640625
      ],
      "type": "VEC3"
    },
    {
      "bufferView": 2,
      "byteOffset": 40260,
      "componentType": 5126,
      "count": 53,
      "max": [
        0.9850380420684814,
        0.9914250373840332,
        0.879166305065155
      ],
      "min": [
        -0.9763039350509644,
        -0.9251717925071716,
        -0.8792547583580017
      ],
      "type": "VEC3"
    },
    {
      "bufferView": 1,
      "byteOffset": 13208,
      "componentType": 5126,
      "count": 53,
      "max": [
        0.9843000173568726,
        1.9843000173568726
      ],
      "min": [
        0.00559999980032444,
        1.010599970817566
      ],
      "type": "VEC2"
    },
    {
      "bufferView": 0,
      "byteOffset": 25908,
      "componentType": 5125,
      "count": 222,
      "type": "SCALAR"
    },
    {
      "bufferView": 2,
      "byteOffset": 40896,
      "componentType": 5126,
      "count": 812,
      "max": [
        260.9399108886719,
        541.4686889648438,
        74.90170288085938
      ],
      "min": [
        -260.9280090332031,
        -66.34111022949219,
        -141.33299255371094
      ],
      "type": "VEC3"
    },
    {
      "bufferView": 2,
      "byteOffset": 50640,
      "componentType": 5126,
      "count": 812,
      "max": [
        0.9983059763908386,
        0.99945068359375,
        0.9999356269836426
      ],
      "min": [
        -0.9985959529876709,
        -0.9995492696762085,
        -0.9996323585510254
      ],
      "type": "VEC3"
    },
    {
      "bufferView": 1,
      "byteOffset": 13632,
      "componentType": 5126,
      "count": 812,
      "max": [
        0.9980000257492065,
        1.9983000755310059
      ],
      "min": [
        0.003800000064074993,
        1.0039000511169434
      ],
      "type": "VEC2"
    },
    {
      "bufferView": 0,
      "byteOffset": 26796,
      "componentType": 5125,
      "count": 3537,
      "type": "SCALAR"
    },
    {
      "bufferView": 2,
      "byteOffset": 60384,
      "componentType": 5126,
      "count": 53,
      "max": [
        107.46409606933594,
        434.47509765625,
        81.59140014648438
      ],
      "min": [
        39.79850387573242,
        191.96827697753906,
        -195.85787963867188
      ],
      "type": "VEC3"
    },
    {
      "bufferView": 2,
      "byteOffset": 61020,
      "componentType": 5126,
      "count": 53,
      "max": [
        0.9875019788742065,
        0.9518589377403259,
        0.954758882522583
      ],
      "min": [
        -0.9849814772605896,
        -0.9169629812240601,
        -0.9064875841140747
      ],
      "type": "VEC3"
    },
    {
      "bufferView": 1,
      "byteOffset": 20128,
      "componentType": 5126,
      "count": 53,
      "max": [
        0.9851999878883362,
        1.9843000173568726
      ],
      "min": [
        0.01080000028014183,
        1.0148000717163086
      ],
      "type": "VEC2"
    },
    {
      "bufferView": 0,
      "byteOffset": 40944,
      "componentType": 5125,
      "count": 222,
      "type": "SCALAR"
    },
    {
      "bufferView": 2,
      "byteOffset": 61656,
      "componentType": 5126,
      "count": 114,
      "max": [
        21.842300415039063,
        536.3612060546875,
        33.4390983581543
      ],
      "min": [
        -21.830398559570313,
        488.111572265625,
        2.5619001388549805
      ],
      "type": "VEC3"
    },
    {
      "bufferView": 2,
      "byteOffset": 63024,
      "componentType": 5126,
      "count": 114,
      "max": [
        0.9847266674041748,
        0.5044172406196594,
        0.999596118927002
      ],
      "min": [
        -0.9847267866134644,
        -0.9998313188552856,
        -0.44413459300994873
      ],
      "type": "VEC3"
    },
    {
      "bufferView": 1,
      "byteOffset": 20552,
      "componentType": 5126,
      "count": 114,
      "max": [
        0.9957000017166138,
        1.988800048828125
      ],
      "min": [
        0.00419999985024333,
        1.0059000253677368
      ],
      "type": "VEC2"
    },
    {
      "bufferView": 0,
      "byteOffset": 41832,
      "componentType": 5125,
      "count": 612,
      "type": "SCALAR"
    },
    {
      "bufferView": 2,
      "byteOffset": 64392,
      "componentType": 5126,
      "count": 163,
      "max": [
        -207.5489044189453,
        467.22021484375,
        14.770301818847656
      ],
      "min": [
        -276.0997009277344,
        437.4384765625,
        -29.461101531982422
      ],
      "type": "VEC3"
    },
    {
      "bufferView": 2,
      "byteOffset": 66348,
      "componentType": 5126,
      "count": 163,
      "max": [
        0.9884792566299438,
        0.9923511147499084,
        0.6289947628974915
      ],
      "min": [
        -0.7189003229141235,
        -0.9991937279701233,
        -0.9730587601661682
      ],
      "type": "VEC3"
    },
    {
      "bufferView": 1,
      "byteOffset": 21464,
      "componentType": 5126,
      "count": 163,
      "max": [
        0.9824000000953674,
        1.9296000003814697
      ],
      "min": [
        0.024000000208616257,
        1.0600000619888306
      ],
      "type": "VEC2"
    },
    {
      "bufferView": 0,
      "byteOffset": 44280,
      "componentType": 5125,
      "count": 540,
      "type": "SCALAR"
    },
    {
      "bufferView": 2,
      "byteOffset": 68304,
      "componentType": 5126,
      "count": 337,
      "max": [
        -207.5489044189453,
        473.037109375,
        14.770301818847656
      ],
      "min": [
        -276.0997009277344,
        437.4384765625,
        -31.420001983642578
      ],
      "type": "VEC3"
    },
    {
      "bufferView": 2,
      "byteOffset": 72348,
      "componentType": 5126,
      "count": 337,
      "max": [
        0.999108612537384,
        0.9996387362480164,
        0.9981326460838318
      ],
      "min": [
        -0.9777479767799377,
        -0.9859563112258911,
        -0.9995086789131165
      ],
      "type": "VEC3"
    },
    {
      "bufferView": 1,
      "byteOffset": 22768,
      "componentType": 5126,
      "count": 337,
      "max": [
        0.9824000000953674,
        1.9296000003814697
      ],
      "min": [
        0.024000000208616257,
        1.0600000619888306
      ],
      "type": "VEC2"
    },
    {
      "bufferView": 0,
      "byteOffset": 46440,
      "componentType": 5125,
      "count": 1590,
      "type": "SCALAR"
    }
  ],
  "asset": {
    "extras": {
      "author": "deankagura (https://sketchfab.com/deankagura)",
      "license": "CC-BY-4.0 (http://creativecommons.org/licenses/by/4.0/)",
      "source": "https://sketchfab.com/3d-models/sesshomaru-9f3e31140ad94bb7819a4b7566fe16f8",
      "title": "Sesshomaru"
    },
    "generator": "Sketchfab-15.47.0",
    "version": "2.0"
  },
  "bufferViews": [
    {
      "buffer": 0,
      "byteLength": 52800,
      "name": "floatBufferViews",
      "target": 34963
    },
    {
      "buffer": 0,
      "byteLength": 25464,
      "byteOffset": 52800,
      "byteStride": 8,
      "name": "floatBufferViews",
      "target": 34962
    },
    {
      "buffer": 0,
      "byteLength": 76392,
      "byteOffset": 78264,
      "byteStride": 12,
      "name": "floatBufferViews",
      "target": 34962
    }
  ],
  "buffers": [
    {
      "byteLength": 154656,
      "uri": "scene.bin"
    }
  ],
  "images": [
    {
      "uri": "textures/cloth_baseColor.png"
    },
    {
      "uri": "textures/sword2_baseColor.png"
    },
    {
      "uri": "textures/body_baseColor.png"
    },
    {
      "uri": "textures/sword1_baseColor.png"
    },
    {
      "uri": "textures/face_baseColor.png"
    },
    {
      "uri": "textures/handbottom_baseColor.png"
    },
    {
      "uri": "textures/handtop_baseColor.png"
    }
  ],
  "materials": [
    {
      "doubleSided": true,
      "name": "cloth",
      "pbrMetallicRoughness": {
        "baseColorTexture": {
          "index": 0
        },
        "metallicFactor": 0.0,
        "roughnessFactor": 0.9577051494623774
      }
    },
    {
      "doubleSided": true,
      "name": "sword2",
      "pbrMetallicRoughness": {
        "baseColorTexture": {
          "index": 1
        },
        "metallicFactor": 0.0,
        "roughnessFactor": 0.9577051494623774
      }
    },
    {
      "doubleSided": true,
      "name": "body",
      "pbrMetallicRoughness": {
        "baseColorTexture": {
          "index": 2
        },
        "metallicFactor": 0.0,
        "roughnessFactor": 0.9577051494623774
      }
    },
    {
      "doubleSided": true,
      "name": "sword1",
      "pbrMetallicRoughness": {
        "baseColorTexture": {
          "index": 3
        },
        "metallicFactor": 0.0,
        "roughnessFactor": 0.9577051494623774
      }
    },
    {
      "doubleSided": true,
      "name": "face",
      "pbrMetallicRoughness": {
        "baseColorTexture": {
          "index": 4
        },
        "metallicFactor": 0.0,
        "roughnessFactor": 0.9577051494623774
      }
    },
    {
      "doubleSided": true,
      "name": "handbottom",
      "pbrMetallicRoughness": {
        "baseColorTexture": {
          "index": 5
        },
        "metallicFactor": 0.0,
        "roughnessFactor": 0.9577051494623774
      }
    },
    {
      "doubleSided": true,
      "name": "handtop",
      "pbrMetallicRoughness": {
        "baseColorTexture": {
          "index": 6
        },
        "metallicFactor": 0.0,
        "roughnessFactor": 0.9577051494623774
      }
    }
  ],
  "meshes": [
    {
      "name": "mesh0_cloth_0",
      "primitives": [
        {
          "attributes": {
            "NORMAL": 1,
            "POSITION": 0,
            "TEXCOORD_0": 2
          },
          "indices": 3,
          "material": 0,
          "mode": 4
        }
      ]
    },
    {
      "name": "mesh1_sword2_0",
      "primitives": [
        {
          "attributes": {
            "NORMAL": 5,
            "POSITION": 4,
            "TEXCOORD_0": 6
          },
          "indices": 7,
          "material": 1,
          "mode": 4
        }
      ]
    },
    {
      "name": "mesh2_body_0",
      "primitives": [
        {
          "attributes": {
            "NORMAL": 9,
            "POSITION": 8,
            "TEXCOORD_0": 10
          },
          "indices": 11,
          "material": 2,
          "mode": 4
        }
      ]
    },
    {
      "name": "mesh3_sword1_0",
      "primitives": [
        {
          "attributes": {
            "NORMAL": 13,
            "POSITION": 12,
            "TEXCOORD_0": 14
          },
          "indices": 15,
          "material": 3,
          "mode": 4
        }
      ]
    },
    {
      "name": "mesh4_face_0",
      "primitives": [
        {
          "attributes": {
            "NORMAL": 17,
            "POSITION": 16,
            "TEXCOORD_0": 18
          },
          "indices": 19,
          "material": 4,
          "mode": 4
        }
      ]
    },
    {
      "name": "mesh5_handbottom_0",
      "primitives": [
        {
          "attributes": {
            "NORMAL": 21,
            "POSITION": 20,
            "TEXCOORD_0": 22
          },
          "indices": 23,
          "material": 5,
          "mode": 4
        }
      ]
    },
    {
      "name": "mesh6_handtop_0",
      "primitives": [
        {
          "attributes": {
            "NORMAL": 25,
            "POSITION": 24,
            "TEXCOORD_0": 26
          },
          "indices": 27,
          "material": 6,
          "mode": 4
        }
      ]
    }
  ],
  "nodes": [
    {
      "children": [
        1
      ],
      "matrix": [
        1.0,
        0.0,
        0.0,
        0.0,
        0.0,
        2.220446049250313e-16,
        -1.0,
        0.0,
        0.0,
        1.0,
        2.220446049250313e-16,
        0.0,
        0.0,
        0.0,
        0.0,
        1.0
      ],
      "name": "Sketchfab_model"
    },
    {
      "children": [
        2
      ],
      "matrix": [
        0.009999999776482582,
        0.0,
        0.0,
        0.0,
        0.0,
        0.0,
        0.009999999776482582,
        0.0,
        0.0,
        -0.009999999776482582,
        0.0,
        0.0,
        0.0,
        0.0,
        0.0,
        1.0
      ],
      "name": "Sesshomaru.fbx"
    },
    {
      "children": [
        3,
        5,
        7,
        9,
        11,
        13,
        15
      ],
      "name": "RootNode"
    },
    {
      "children": [
        4
      ],
      "name": "mesh0"
    },
    {
      "mesh": 0,
      "name": "mesh0_cloth_0"
    },
    {
      "children": [
        6
      ],
      "name": "mesh1"
    },
    {
      "mesh": 1,
      "name": "mesh1_sword2_0"
    },
    {
      "children": [
        8
      ],
      "name": "mesh2"
    },
    {
      "mesh": 2,
      "name": "mesh2_body_0"
    },
    {
      "children": [
        10
      ],
      "name": "mesh3"
    },
    {
      "mesh": 3,
      "name": "mesh3_sword1_0"
    },
    {
      "children": [
        12
      ],
      "name": "mesh4"
    },
    {
      "mesh": 4,
      "name": "mesh4_face_0"
    },
    {
      "children": [
        14
      ],
      "name": "mesh5"
    },
    {
      "mesh": 5,
      "name": "mesh5_handbottom_0"
    },
    {
      "children": [
        16
      ],
      "name": "mesh6"
    },
    {
      "mesh": 6,
      "name": "mesh6_handtop_0"
    }
  ],
  "samplers": [
    {
      "magFilter": 9729,
      "minFilter": 9987,
      "wrapS": 10497,
      "wrapT": 10497
    }
  ],
  "scene": 0,
  "scenes": [
    {
      "name": "Sketchfab_Scene",
      "nodes": [
        0
      ]
    }
  ],
  "textures": [
    {
      "sampler": 0,
      "source": 0
    },
    {
      "sampler": 0,
      "source": 1
    },
    {
      "sampler": 0,
      "source": 2
    },
    {
      "sampler": 0,
      "source": 3
    },
    {
      "sampler": 0,
      "source": 4
    },
    {
      "sampler": 0,
      "source": 5
    },
    {
      "sampler": 0,
      "source": 6
    }
  ]
}
